{
  "accessors": [
    {
      "bufferView": 1,
      "componentType": 5126,
      "count": 30033,
      "max": [
        127.5,
        111.5,
        24.5
      ],
      "min": [
        -0.5,
        -0.5,
        -0.5
      ],
      "type": "VEC3"
    },
    {
      "bufferView": 1,
      "byteOffset": 360396,
      "componentType": 5126,
      "count": 30033,
      "max": [
        1.0,
        1.0,
        1.0
      ],
      "min": [
        -1.0,
        -1.0,
        -1.0
      ],
      "type": "VEC3"
    },
    {
      "bufferView": 2,
      "componentType": 5126,
      "count": 30033,
      "max": [
        1.0,
        1.0,
        0.7058823704719543,
        1.0
      ],
      "min": [
        1.0,
        1.0,
        0.7058823704719543,
        1.0
      ],
      "type": "VEC4"
    },
    {
      "bufferView": 0,
      "componentType": 5125,
      "count": 140448,
      "type": "SCALAR"
    },
    {
      "bufferView": 1,
      "byteOffset": 720792,
      "componentType": 5126,
      "count": 19404,
      "max": [
        127.5,
        111.5,
        24.5
      ],
      "min": [
        -0.5,
        -0.5,
        -0.5
      ],
      "type": "VEC3"
    },
    {
      "bufferView": 1,
      "byteOffset": 953640,
      "componentType": 5126,
      "count": 19404,
      "max": [
        1.0,
        1.0,
        1.0
      ],
      "min": [
        -1.0,
        -1.0,
        -1.0
      ],
      "type": "VEC3"
    },
    {
      "bufferView": 2,
      "byteOffset": 480528,
      "componentType": 5126,
      "count": 19404,
      "max": [
        0.6470588445663452,
        0.8235294222831726,
        0.29411765933036804,
        1.0
      ],
      "min": [
        0.6470588445663452,
        0.8235294222831726,
        0.29411765933036804,
        1.0
      ],
      "type": "VEC4"
    },
    {
      "bufferView": 0,
      "byteOffset": 561792,
      "componentType": 5125,
      "count": 46200,
      "type": "SCALAR"
    },
    {
      "bufferView": 1,
      "byteOffset": 1186488,
      "componentType": 5126,
      "count": 6974,
      "max": [
        127.5,
        110.5,
        24.5
      ],
      "min": [
        -0.5,
        30.5,
        0.5
      ],
      "type": "VEC3"
    },
    {
      "bufferView": 1,
      "byteOffset": 1270176,
      "componentType": 5126,
      "count": 6974,
      "max": [
        1.0,
        1.0,
        1.0
      ],
      "min": [
        -1.0,
        -1.0,
        -1.0
      ],
      "type": "VEC3"
    },
    {
      "bufferView": 2,
      "byteOffset": 790992,
      "componentType": 5126,
      "count": 6974,
      "max": [
        0.0,
        0.05882352963089943,
        0.11764705926179886,
        1.0
      ],
      "min": [
        0.0,
        0.05882352963089943,
        0.11764705926179886,
        1.0
      ],
      "type": "VEC4"
    },
    {
      "bufferView": 0,
      "byteOffset": 746592,
      "componentType": 5125,
      "count": 19338,
      "type": "SCALAR"
    },
    {
      "bufferView": 1,
      "byteOffset": 1353864,
      "componentType": 5126,
      "count": 9532,
      "max": [
        127.5,
        111.5,
        24.5
      ],
      "min": [
        -0.5,
        0.5,
        -0.5
      ],
      "type": "VEC3"
    },
    {
      "bufferView": 1,
      "byteOffset": 1468248,
      "componentType": 5126,
      "count": 9532,
      "max": [
        1.0,
        1.0,
        1.0
      ],
      "min": [
        -1.0,
        -1.0,
        -1.0
      ],
      "type": "VEC3"
    },
    {
      "bufferView": 2,
      "byteOffset": 902576,
      "componentType": 5126,
      "count": 9532,
      "max": [
        0.23529411852359772,
        0.529411792755127,
        0.1764705926179886,
        1.0
      ],
      "min": [
        0.23529411852359772,
        0.529411792755127,
        0.1764705926179886,
        1.0
      ],
      "type": "VEC4"
    },
    {
      "bufferView": 0,
      "byteOffset": 823944,
      "componentType": 5125,
      "count": 42498,
      "type": "SCALAR"
    },
    {
      "bufferView": 1,
      "byteOffset": 1582632,
      "componentType": 5126,
      "count": 864,
      "max": [
        121.5,
        110.5,
        20.5
      ],
      "min": [
        45.5,
        109.5,
        9.5
      ],
      "type": "VEC3"
    },
    {
      "bufferView": 1,
      "byteOffset": 1593000,
      "componentType": 5126,
      "count": 864,
      "max": [
        1.0,
        0.0,
        1.0
      ],
      "min": [
        -1.0,
        -1.0,
        -1.0
      ],
      "type": "VEC3"
    },
    {
      "bufferView": 2,
      "byteOffset": 1055088,
      "componentType": 5126,
      "count": 864,
      "max": [
        0.10196078568696976,
        0.10196078568696976,
        0.10196078568696976,
        1.0
      ],
      "min": [
        0.10196078568696976,
        0.10196078568696976,
        0.10196078568696976,
        1.0
      ],
      "type": "VEC4"
    },
    {
      "bufferView": 0,
      "byteOffset": 993936,
      "componentType": 5125,
      "count": 2772,
      "type": "SCALAR"
    }
  ],
  "asset": {
    "extras": {
      "author": "Mikito11 (https://sketchfab.com/Mikito11)",
      "license": "CC-BY-4.0 (http://creativecommons.org/licenses/by/4.0/)",
      "source": "https://sketchfab.com/3d-models/pokemon-gb-home-f1-room-ff29cad3fce14f6fa3eff3084482ca10",
      "title": "Pokémon GB Home F1 Room"
    },
    "generator": "Sketchfab-15.77.0",
    "version": "2.0"
  },
  "bufferViews": [
    {
      "buffer": 0,
      "byteLength": 1005024,
      "name": "floatBufferViews",
      "target": 34963
    },
    {
      "buffer": 0,
      "byteLength": 1603368,
      "byteOffset": 1005024,
      "byteStride": 12,
      "name": "floatBufferViews",
      "target": 34962
    },
    {
      "buffer": 0,
      "byteLength": 1068912,
      "byteOffset": 2608392,
      "byteStride": 16,
      "name": "floatBufferViews",
      "target": 34962
    }
  ],
  "buffers": [
    {
      "byteLength": 3677304,
      "uri": "scene.bin"
    }
  ],
  "materials": [
    {
      "doubleSided": true,
      "name": "Scene_-_Root",
      "pbrMetallicRoughness": {
        "metallicFactor": 0.0,
        "roughnessFactor": 0.6
      }
    }
  ],
  "meshes": [
    {
      "name": "Object_0",
      "primitives": [
        {
          "attributes": {
            "COLOR_0": 2,
            "NORMAL": 1,
            "POSITION": 0
          },
          "indices": 3,
          "material": 0,
          "mode": 4
        }
      ]
    },
    {
      "name": "Object_1",
      "primitives": [
        {
          "attributes": {
            "COLOR_0": 6,
            "NORMAL": 5,
            "POSITION": 4
          },
          "indices": 7,
          "material": 0,
          "mode": 4
        }
      ]
    },
    {
      "name": "Object_2",
      "primitives": [
        {
          "attributes": {
            "COLOR_0": 10,
            "NORMAL": 9,
            "POSITION": 8
          },
          "indices": 11,
          "material": 0,
          "mode": 4
        }
      ]
    },
    {
      "name": "Object_3",
      "primitives": [
        {
          "attributes": {
            "COLOR_0": 14,
            "NORMAL": 13,
            "POSITION": 12
          },
          "indices": 15,
          "material": 0,
          "mode": 4
        }
      ]
    },
    {
      "name": "Object_4",
      "primitives": [
        {
          "attributes": {
            "COLOR_0": 18,
            "NORMAL": 17,
            "POSITION": 16
          },
          "indices": 19,
          "material": 0,
          "mode": 4
        }
      ]
    }
  ],
  "nodes": [
    {
      "children": [
        1
      ],
      "matrix": [
        1.0,
        0.0,
        0.0,
        0.0,
        0.0,
        2.220446049250313e-16,
        -1.0,
        0.0,
        0.0,
        1.0,
        2.220446049250313e-16,
        0.0,
        0.0,
        0.0,
        0.0,
        1.0
      ],
      "name": "Sketchfab_model"
    },
    {
      "children": [
        2
      ],
      "name": "VoxRoot"
    },
    {
      "children": [
        3,
        4,
        5,
        6,
        7
      ],
      "name": "Object_2"
    },
    {
      "mesh": 0,
      "name": "Object_3"
    },
    {
      "mesh": 1,
      "name": "Object_4"
    },
    {
      "mesh": 2,
      "name": "Object_5"
    },
    {
      "mesh": 3,
      "name": "Object_6"
    },
    {
      "mesh": 4,
      "name": "Object_7"
    }
  ],
  "scene": 0,
  "scenes": [
    {
      "name": "Sketchfab_Scene",
      "nodes": [
        0
      ]
    }
  ]
}
